<svg xmlns="http://www.w3.org/2000/svg" xmlns:v="https://svgstorm.com"
viewBox = "0 0 181 181"
width="181"
height="181">
<g fill="None" fill-opacity="0.0" stroke="#000000" stroke-opacity="0.00" strokeWidth="0.3"><path d="
M 0.00 181.00 
L 181.00 181.00
L 181.00 0.00
L 0.00 0.00
L 0.00 181.00
M 107.00 24.00 
C 107.50 23.97 108.00 24.00 108.00 24.00
C 113.26 24.20 125.05 29.30 127.00 34.00
C 127.48 34.09 128.00 34.00 128.00 34.00
C 132.32 35.67 138.87 42.65 141.00 47.00
C 141.20 47.40 141.00 48.00 141.00 48.00
C 147.60 54.32 151.28 65.98 152.00 75.00
C 152.67 83.44 152.35 92.27 150.00 100.00
C 146.68 110.93 140.99 119.93 133.00 128.00
C 130.06 130.96 126.96 134.15 124.00 137.00
C 113.89 148.37 101.57 158.46 92.00 170.00
C 83.90 166.91 79.09 157.37 72.00 152.00
C 86.67 136.28 103.47 119.56 119.00 105.00
C 119.20 104.60 119.00 104.00 119.00 104.00
C 121.83 96.80 125.98 91.16 125.98 82.98 C 125.97 74.79 121.83 69.21 119.00 62.00
C 118.83 61.57 119.00 61.00 119.00 61.00
C 109.97 58.09 102.92 45.87 91.00 48.00 C 79.08 50.13 70.37 51.82 63.25 61.25 C 56.12 70.67 53.73 82.79 56.99 94.01 C 60.25 105.22 68.11 108.88 74.90 117.10 C 81.69 125.32 65.30 131.96 62.00 139.00
C 36.62 125.62 20.34 89.96 33.00 62.00
C 33.34 59.92 34.15 57.96 35.00 56.00
C 36.07 53.52 37.03 51.88 39.00 50.00
C 39.09 49.52 39.00 49.00 39.00 49.00
C 40.84 43.89 48.15 36.37 53.00 34.00
C 53.40 33.80 54.00 34.00 54.00 34.00
C 55.37 31.90 56.80 31.03 59.00 30.00
C 59.89 29.59 61.26 29.42 62.00 29.00
C 72.42 23.10 95.62 14.77 107.00 24.00
M 107.00 91.00 
C 106.99 92.14 106.54 93.02 106.00 94.00
C 101.19 102.76 88.07 104.78 79.92 99.08 C 71.77 93.37 69.49 82.44 74.31 73.31 C 79.12 64.17 91.94 63.16 99.69 66.31 C 107.45 69.45 115.47 86.98 107.00 91.00 Z"/>
</g>
<g fill="None" fill-opacity="0.0" stroke="#C7C6C7" stroke-opacity="0.20" strokeWidth="0.3"><path d="
M 62.00 29.00 
C 68.55 25.13 78.25 23.00 86.00 23.00
C 88.89 22.72 92.15 22.66 95.00 23.00
C 99.17 23.08 102.92 24.27 107.00 24.00
C 95.62 14.77 72.42 23.10 62.00 29.00 Z"/>
</g>
<g fill="None" fill-opacity="0.0" stroke="#6F6D6E" stroke-opacity="0.60" strokeWidth="0.3"><path d="
M 86.00 23.00 
C 89.00 23.00 92.00 22.94 95.00 23.00
C 92.15 22.66 88.89 22.72 86.00 23.00 Z"/>
</g>
<g fill="None" fill-opacity="0.0" stroke="#1B1B1B" stroke-opacity="0.99" strokeWidth="0.3"><path d="
M 62.00 29.00 
C 60.71 29.76 59.53 31.16 58.00 32.00
C 56.73 32.70 55.13 33.13 54.00 34.00
C 52.15 38.42 46.09 41.69 43.00 45.00
C 42.59 45.67 42.35 46.32 42.00 47.00
C 40.96 49.03 39.01 50.34 38.00 52.00
C 37.62 52.92 37.44 54.01 37.00 55.00
C 35.80 57.66 34.50 60.85 33.00 63.00
C 32.87 66.51 31.25 69.38 31.00 73.00
C 30.56 79.43 30.49 86.58 31.00 93.00
C 31.78 102.89 37.27 112.97 43.00 121.00
C 47.72 126.63 54.92 130.78 59.00 137.00
C 65.70 134.00 69.82 126.11 76.00 122.00
C 73.65 115.98 66.46 112.50 63.00 107.00
C 52.55 94.77 52.15 78.01 59.00 64.00
C 60.75 60.43 63.84 57.35 67.00 55.00
C 78.43 46.50 92.67 44.58 106.00 50.00
C 108.29 50.93 109.20 51.39 111.00 53.00
C 111.63 53.32 112.42 53.65 113.00 54.00
C 116.65 56.22 120.26 60.28 122.00 64.00
C 127.94 76.70 128.40 89.21 122.00 102.00
C 117.24 111.52 106.28 119.01 98.75 126.75 C 91.22 134.49 82.82 144.83 74.00 151.00
C 73.80 151.40 74.00 152.00 74.00 152.00
C 79.57 155.89 86.14 162.49 90.00 168.00
C 90.40 168.20 91.00 168.00 91.00 168.00
C 97.11 159.26 106.69 151.81 114.25 144.25 C 121.80 136.69 129.32 127.07 138.00 121.00
C 138.20 120.60 138.00 120.00 138.00 120.00
C 139.42 117.72 141.62 115.99 143.00 114.00
C 143.93 112.30 144.31 110.72 145.00 109.00
C 145.70 107.24 147.40 105.39 148.00 104.00
C 148.37 102.83 148.71 101.23 149.00 100.00
C 151.12 90.96 151.60 81.28 150.00 72.00
C 148.61 63.92 145.74 57.32 142.00 50.00
C 140.98 48.53 139.26 46.45 138.00 45.00
C 134.54 41.03 129.09 35.83 125.00 33.00
C 119.57 30.22 112.53 27.63 108.00 24.00
C 108.00 24.00 107.50 23.97 107.00 24.00
C 102.92 24.27 99.17 23.08 95.00 23.00
C 92.00 22.94 89.00 23.00 86.00 23.00
C 78.25 23.00 68.55 25.13 62.00 29.00 Z"/>
</g>
<g fill="None" fill-opacity="0.0" stroke="#BAB8B9" stroke-opacity="0.26" strokeWidth="0.3"><path d="
M 125.00 33.00 
C 125.71 33.36 126.20 33.85 127.00 34.00
C 125.05 29.30 113.26 24.20 108.00 24.00
C 112.53 27.63 119.57 30.22 125.00 33.00 Z"/>
</g>
<g fill="None" fill-opacity="0.0" stroke="#919292" stroke-opacity="0.44" strokeWidth="0.3"><path d="
M 59.00 30.00 
C 58.52 30.46 58.40 31.59 58.00 32.00
C 59.53 31.16 60.71 29.76 62.00 29.00
C 61.26 29.42 59.89 29.59 59.00 30.00 Z"/>
</g>
<g fill="None" fill-opacity="0.0" stroke="#CCCCCC" stroke-opacity="0.18" strokeWidth="0.3"><path d="
M 54.00 34.00 
C 55.13 33.13 56.73 32.70 58.00 32.00
C 58.40 31.59 58.52 30.46 59.00 30.00
C 56.80 31.03 55.37 31.90 54.00 34.00 Z"/>
</g>
<g fill="None" fill-opacity="0.0" stroke="#636262" stroke-opacity="0.64" strokeWidth="0.3"><path d="
M 138.00 45.00 
C 134.66 41.93 130.57 37.68 128.00 34.00
C 128.00 34.00 127.48 34.09 127.00 34.00
C 126.20 33.85 125.71 33.36 125.00 33.00
C 129.09 35.83 134.54 41.03 138.00 45.00 Z"/>
</g>
<g fill="None" fill-opacity="0.0" stroke="#DAD6D7" stroke-opacity="0.13" strokeWidth="0.3"><path d="
M 39.00 49.00 
C 39.70 48.23 41.38 47.73 42.00 47.00
C 42.35 46.32 42.59 45.67 43.00 45.00
C 45.55 40.81 50.23 37.97 53.00 34.00
C 48.15 36.37 40.84 43.89 39.00 49.00 Z"/>
</g>
<g fill="None" fill-opacity="0.0" stroke="#7A797A" stroke-opacity="0.56" strokeWidth="0.3"><path d="
M 43.00 45.00 
C 46.09 41.69 52.15 38.42 54.00 34.00
C 54.00 34.00 53.40 33.80 53.00 34.00
C 50.23 37.97 45.55 40.81 43.00 45.00 Z"/>
</g>
<g fill="None" fill-opacity="0.0" stroke="#D3D1D2" stroke-opacity="0.15" strokeWidth="0.3"><path d="
M 138.00 45.00 
C 138.79 45.72 140.34 46.27 141.00 47.00
C 138.87 42.65 132.32 35.67 128.00 34.00
C 130.57 37.68 134.66 41.93 138.00 45.00 Z"/>
</g>
<g fill="None" fill-opacity="0.0" stroke="#979696" stroke-opacity="0.40" strokeWidth="0.3"><path d="
M 142.00 50.00 
C 141.64 49.29 141.15 48.80 141.00 48.00
C 141.00 48.00 141.20 47.40 141.00 47.00
C 140.34 46.27 138.79 45.72 138.00 45.00
C 139.26 46.45 140.98 48.53 142.00 50.00 Z"/>
</g>
<g fill="None" fill-opacity="0.0" stroke="#7A7A7A" stroke-opacity="0.56" strokeWidth="0.3"><path d="
M 39.00 49.00 
C 39.00 49.00 39.09 49.52 39.00 50.00
C 38.89 50.60 38.24 51.42 38.00 52.00
C 39.01 50.34 40.96 49.03 42.00 47.00
C 41.38 47.73 39.70 48.23 39.00 49.00 Z"/>
</g>
<g fill="None" fill-opacity="0.0" stroke="#C5C4C5" stroke-opacity="0.21" strokeWidth="0.3"><path d="
M 67.00 55.00 
C 64.52 57.17 60.61 61.42 59.00 64.00
C 52.15 78.01 52.55 94.77 63.00 107.00
C 67.42 111.42 72.44 115.81 77.00 120.00
C 73.68 127.04 65.44 131.49 61.00 138.00
C 54.13 134.18 48.52 126.76 43.00 121.00
C 37.27 112.97 31.78 102.89 31.00 93.00
C 29.80 86.76 29.89 79.17 31.00 73.00
C 31.25 69.38 32.87 66.51 33.00 63.00
C 33.02 62.50 33.00 62.00 33.00 62.00
C 20.34 89.96 36.62 125.62 62.00 139.00
C 65.30 131.96 81.69 125.32 74.90 117.10 C 68.11 108.88 60.25 105.22 56.99 94.01 C 53.73 82.79 56.12 70.67 63.25 61.25 C 70.37 51.82 79.08 50.13 91.00 48.00 C 102.92 45.87 109.97 58.09 119.00 61.00
C 117.90 58.74 114.77 55.65 113.00 54.00
C 112.42 53.65 111.63 53.32 111.00 53.00
C 109.28 52.12 107.48 50.75 106.00 50.00
C 92.67 44.58 78.43 46.50 67.00 55.00 Z"/>
</g>
<g fill="None" fill-opacity="0.0" stroke="#C9C8C8" stroke-opacity="0.18" strokeWidth="0.3"><path d="
M 142.00 50.00 
C 145.74 57.32 148.61 63.92 150.00 72.00
C 150.24 72.65 151.84 74.39 152.00 75.00
C 151.28 65.98 147.60 54.32 141.00 48.00
C 141.15 48.80 141.64 49.29 142.00 50.00 Z"/>
</g>
<g fill="None" fill-opacity="0.0" stroke="#D0D0D0" stroke-opacity="0.16" strokeWidth="0.3"><path d="
M 35.00 56.00 
C 35.43 55.51 36.61 55.40 37.00 55.00
C 37.44 54.01 37.62 52.92 38.00 52.00
C 38.24 51.42 38.89 50.60 39.00 50.00
C 37.03 51.88 36.07 53.52 35.00 56.00 Z"/>
</g>
<g fill="None" fill-opacity="0.0" stroke="#666466" stroke-opacity="0.64" strokeWidth="0.3"><path d="
M 111.00 53.00 
C 109.20 51.39 108.29 50.93 106.00 50.00
C 107.48 50.75 109.28 52.12 111.00 53.00 Z"/>
</g>
<g fill="None" fill-opacity="0.0" stroke="#686667" stroke-opacity="0.62" strokeWidth="0.3"><path d="
M 119.00 61.00 
C 119.00 61.00 118.83 61.57 119.00 62.00
C 119.68 62.75 121.43 63.27 122.00 64.00
C 120.26 60.28 116.65 56.22 113.00 54.00
C 114.77 55.65 117.90 58.74 119.00 61.00 Z"/>
</g>
<g fill="None" fill-opacity="0.0" stroke="#9F9F9F" stroke-opacity="0.38" strokeWidth="0.3"><path d="
M 35.00 56.00 
C 34.15 57.96 33.34 59.92 33.00 62.00
C 33.00 62.00 33.02 62.50 33.00 63.00
C 34.50 60.85 35.80 57.66 37.00 55.00
C 36.61 55.40 35.43 55.51 35.00 56.00 Z"/>
</g>
<g fill="None" fill-opacity="0.0" stroke="#565656" stroke-opacity="0.72" strokeWidth="0.3"><path d="
M 59.00 64.00 
C 60.61 61.42 64.52 57.17 67.00 55.00
C 63.84 57.35 60.75 60.43 59.00 64.00 Z"/>
</g>
<g fill="None" fill-opacity="0.0" stroke="#C5C2C4" stroke-opacity="0.22" strokeWidth="0.3"><path d="
M 119.00 104.00 
C 119.69 103.24 121.40 102.73 122.00 102.00
C 128.40 89.21 127.94 76.70 122.00 64.00
C 121.43 63.27 119.68 62.75 119.00 62.00
C 121.83 69.21 125.97 74.79 125.98 82.98 C 125.98 91.16 121.83 96.80 119.00 104.00 Z"/>
</g>
<g fill="None" fill-opacity="0.0" stroke="#C7C6C6" stroke-opacity="0.21" strokeWidth="0.3"><path d="
M 106.00 94.00 
C 105.07 95.29 102.37 97.22 101.00 98.00
C 94.82 101.52 87.20 101.80 81.00 98.00
C 78.75 96.62 76.28 94.26 75.00 92.00
C 72.95 88.40 72.13 82.29 73.00 78.00
C 73.77 74.21 77.76 69.98 81.00 68.00
C 93.95 60.07 116.11 74.05 107.00 90.00
C 106.78 90.38 107.00 91.00 107.00 91.00
C 115.47 86.98 107.45 69.45 99.69 66.31 C 91.94 63.16 79.12 64.17 74.31 73.31 C 69.49 82.44 71.77 93.37 79.92 99.08 C 88.07 104.78 101.19 102.76 106.00 94.00 Z"/>
</g>
<g fill="None" fill-opacity="0.0" stroke="#1D1C1C" stroke-opacity="0.98" strokeWidth="0.3"><path d="
M 81.00 68.00 
C 78.81 69.58 73.61 75.83 73.00 78.00
C 72.13 82.29 72.95 88.40 75.00 92.00
C 75.93 93.38 79.69 97.06 81.00 98.00
C 87.20 101.80 94.82 101.52 101.00 98.00
C 103.77 96.14 104.76 91.96 107.00 90.00
C 116.11 74.05 93.95 60.07 81.00 68.00 Z"/>
</g>
<g fill="None" fill-opacity="0.0" stroke="#5F5D5E" stroke-opacity="0.69" strokeWidth="0.3"><path d="
M 73.00 78.00 
C 73.61 75.83 78.81 69.58 81.00 68.00
C 77.76 69.98 73.77 74.21 73.00 78.00 Z"/>
</g>
<g fill="None" fill-opacity="0.0" stroke="#A2A1A1" stroke-opacity="0.35" strokeWidth="0.3"><path d="
M 149.00 100.00 
C 149.35 99.77 150.00 100.00 150.00 100.00
C 152.35 92.27 152.67 83.44 152.00 75.00
C 151.84 74.39 150.24 72.65 150.00 72.00
C 151.60 81.28 151.12 90.96 149.00 100.00 Z"/>
</g>
<g fill="None" fill-opacity="0.0" stroke="#5D5B5C" stroke-opacity="0.69" strokeWidth="0.3"><path d="
M 31.00 93.00 
C 30.49 86.58 30.56 79.43 31.00 73.00
C 29.89 79.17 29.80 86.76 31.00 93.00 Z"/>
</g>
<g fill="None" fill-opacity="0.0" stroke="#929191" stroke-opacity="0.45" strokeWidth="0.3"><path d="
M 101.00 98.00 
C 102.37 97.22 105.07 95.29 106.00 94.00
C 106.54 93.02 106.99 92.14 107.00 91.00
C 107.00 91.00 106.78 90.38 107.00 90.00
C 104.76 91.96 103.77 96.14 101.00 98.00 Z"/>
</g>
<g fill="None" fill-opacity="0.0" stroke="#545454" stroke-opacity="0.71" strokeWidth="0.3"><path d="
M 81.00 98.00 
C 79.69 97.06 75.93 93.38 75.00 92.00
C 76.28 94.26 78.75 96.62 81.00 98.00 Z"/>
</g>
<g fill="None" fill-opacity="0.0" stroke="#C8C7C8" stroke-opacity="0.19" strokeWidth="0.3"><path d="
M 148.00 104.00 
C 147.39 105.91 145.76 107.48 145.00 109.00
C 144.31 110.72 143.93 112.30 143.00 114.00
C 141.71 116.34 140.23 118.55 138.00 120.00
C 138.00 120.00 138.20 120.60 138.00 121.00
C 133.79 129.60 121.54 137.95 114.75 144.75 C 107.96 151.56 99.54 163.82 91.00 168.00
C 91.00 168.00 90.40 168.20 90.00 168.00
C 85.39 165.74 76.23 156.55 74.00 152.00
C 74.00 152.00 73.80 151.40 74.00 151.00
C 78.52 141.75 90.64 136.86 96.25 128.25 C 101.86 119.64 114.48 114.24 119.00 105.00
C 103.47 119.56 86.67 136.28 72.00 152.00
C 79.09 157.37 83.90 166.91 92.00 170.00
C 101.57 158.46 113.89 148.37 124.00 137.00
C 126.84 133.81 129.81 130.75 133.00 128.00
C 140.99 119.93 146.68 110.93 150.00 100.00
C 150.00 100.00 149.35 99.77 149.00 100.00
C 148.71 101.23 148.37 102.83 148.00 104.00 Z"/>
</g>
<g fill="None" fill-opacity="0.0" stroke="#716F70" stroke-opacity="0.58" strokeWidth="0.3"><path d="
M 119.00 104.00 
C 119.00 104.00 119.20 104.60 119.00 105.00
C 114.48 114.24 101.86 119.64 96.25 128.25 C 90.64 136.86 78.52 141.75 74.00 151.00
C 82.82 144.83 91.22 134.49 98.75 126.75 C 106.28 119.01 117.24 111.52 122.00 102.00
C 121.40 102.73 119.69 103.24 119.00 104.00 Z"/>
</g>
<g fill="None" fill-opacity="0.0" stroke="#5B595A" stroke-opacity="0.66" strokeWidth="0.3"><path d="
M 145.00 109.00 
C 145.76 107.48 147.39 105.91 148.00 104.00
C 147.40 105.39 145.70 107.24 145.00 109.00 Z"/>
</g>
<g fill="None" fill-opacity="0.0" stroke="#615F60" stroke-opacity="0.65" strokeWidth="0.3"><path d="
M 43.00 121.00 
C 48.52 126.76 54.13 134.18 61.00 138.00
C 65.44 131.49 73.68 127.04 77.00 120.00
C 72.44 115.81 67.42 111.42 63.00 107.00
C 66.46 112.50 73.65 115.98 76.00 122.00
C 69.82 126.11 65.70 134.00 59.00 137.00
C 54.92 130.78 47.72 126.63 43.00 121.00 Z"/>
</g>
<g fill="None" fill-opacity="0.0" stroke="#514F50" stroke-opacity="0.71" strokeWidth="0.3"><path d="
M 138.00 120.00 
C 140.23 118.55 141.71 116.34 143.00 114.00
C 141.62 115.99 139.42 117.72 138.00 120.00 Z"/>
</g>
<g fill="None" fill-opacity="0.0" stroke="#4C4B4C" stroke-opacity="0.75" strokeWidth="0.3"><path d="
M 91.00 168.00 
C 99.54 163.82 107.96 151.56 114.75 144.75 C 121.54 137.95 133.79 129.60 138.00 121.00
C 129.32 127.07 121.80 136.69 114.25 144.25 C 106.69 151.81 97.11 159.26 91.00 168.00 Z"/>
</g>
<g fill="None" fill-opacity="0.0" stroke="#F1EFEF" stroke-opacity="0.04" strokeWidth="0.3"><path d="
M 124.00 137.00 
C 126.96 134.15 130.06 130.96 133.00 128.00
C 129.81 130.75 126.84 133.81 124.00 137.00 Z"/>
</g>
<g fill="None" fill-opacity="0.0" stroke="#605F60" stroke-opacity="0.66" strokeWidth="0.3"><path d="
M 90.00 168.00 
C 86.14 162.49 79.57 155.89 74.00 152.00
C 76.23 156.55 85.39 165.74 90.00 168.00 Z"/>
</g>
<g fill="#000000" fill-opacity="0.00" stroke="None">
<path d="
M 0.00 181.00 
L 181.00 181.00
L 181.00 0.00
L 0.00 0.00
L 0.00 181.00
M 107.00 24.00 
C 107.50 23.97 108.00 24.00 108.00 24.00
C 113.26 24.20 125.05 29.30 127.00 34.00
C 127.48 34.09 128.00 34.00 128.00 34.00
C 132.32 35.67 138.87 42.65 141.00 47.00
C 141.20 47.40 141.00 48.00 141.00 48.00
C 147.60 54.32 151.28 65.98 152.00 75.00
C 152.67 83.44 152.35 92.27 150.00 100.00
C 146.68 110.93 140.99 119.93 133.00 128.00
C 130.06 130.96 126.96 134.15 124.00 137.00
C 113.89 148.37 101.57 158.46 92.00 170.00
C 83.90 166.91 79.09 157.37 72.00 152.00
C 86.67 136.28 103.47 119.56 119.00 105.00
C 119.20 104.60 119.00 104.00 119.00 104.00
C 121.83 96.80 125.98 91.16 125.98 82.98 C 125.97 74.79 121.83 69.21 119.00 62.00
C 118.83 61.57 119.00 61.00 119.00 61.00
C 109.97 58.09 102.92 45.87 91.00 48.00 C 79.08 50.13 70.37 51.82 63.25 61.25 C 56.12 70.67 53.73 82.79 56.99 94.01 C 60.25 105.22 68.11 108.88 74.90 117.10 C 81.69 125.32 65.30 131.96 62.00 139.00
C 36.62 125.62 20.34 89.96 33.00 62.00
C 33.34 59.92 34.15 57.96 35.00 56.00
C 36.07 53.52 37.03 51.88 39.00 50.00
C 39.09 49.52 39.00 49.00 39.00 49.00
C 40.84 43.89 48.15 36.37 53.00 34.00
C 53.40 33.80 54.00 34.00 54.00 34.00
C 55.37 31.90 56.80 31.03 59.00 30.00
C 59.89 29.59 61.26 29.42 62.00 29.00
C 72.42 23.10 95.62 14.77 107.00 24.00
M 107.00 91.00 
C 106.99 92.14 106.54 93.02 106.00 94.00
C 101.19 102.76 88.07 104.78 79.92 99.08 C 71.77 93.37 69.49 82.44 74.31 73.31 C 79.12 64.17 91.94 63.16 99.69 66.31 C 107.45 69.45 115.47 86.98 107.00 91.00 Z"/>
</g>
<g fill="#C7C6C7" fill-opacity="0.20" stroke="None">
<path d="
M 62.00 29.00 
C 68.55 25.13 78.25 23.00 86.00 23.00
C 88.89 22.72 92.15 22.66 95.00 23.00
C 99.17 23.08 102.92 24.27 107.00 24.00
C 95.62 14.77 72.42 23.10 62.00 29.00 Z"/>
</g>
<g fill="#6F6D6E" fill-opacity="0.60" stroke="None">
<path d="
M 86.00 23.00 
C 89.00 23.00 92.00 22.94 95.00 23.00
C 92.15 22.66 88.89 22.72 86.00 23.00 Z"/>
</g>
<g fill="#1B1B1B" fill-opacity="0.99" stroke="None">
<path d="
M 62.00 29.00 
C 60.71 29.76 59.53 31.16 58.00 32.00
C 56.73 32.70 55.13 33.13 54.00 34.00
C 52.15 38.42 46.09 41.69 43.00 45.00
C 42.59 45.67 42.35 46.32 42.00 47.00
C 40.96 49.03 39.01 50.34 38.00 52.00
C 37.62 52.92 37.44 54.01 37.00 55.00
C 35.80 57.66 34.50 60.85 33.00 63.00
C 32.87 66.51 31.25 69.38 31.00 73.00
C 30.56 79.43 30.49 86.58 31.00 93.00
C 31.78 102.89 37.27 112.97 43.00 121.00
C 47.72 126.63 54.92 130.78 59.00 137.00
C 65.70 134.00 69.82 126.11 76.00 122.00
C 73.65 115.98 66.46 112.50 63.00 107.00
C 52.55 94.77 52.15 78.01 59.00 64.00
C 60.75 60.43 63.84 57.35 67.00 55.00
C 78.43 46.50 92.67 44.58 106.00 50.00
C 108.29 50.93 109.20 51.39 111.00 53.00
C 111.63 53.32 112.42 53.65 113.00 54.00
C 116.65 56.22 120.26 60.28 122.00 64.00
C 127.94 76.70 128.40 89.21 122.00 102.00
C 117.24 111.52 106.28 119.01 98.75 126.75 C 91.22 134.49 82.82 144.83 74.00 151.00
C 73.80 151.40 74.00 152.00 74.00 152.00
C 79.57 155.89 86.14 162.49 90.00 168.00
C 90.40 168.20 91.00 168.00 91.00 168.00
C 97.11 159.26 106.69 151.81 114.25 144.25 C 121.80 136.69 129.32 127.07 138.00 121.00
C 138.20 120.60 138.00 120.00 138.00 120.00
C 139.42 117.72 141.62 115.99 143.00 114.00
C 143.93 112.30 144.31 110.72 145.00 109.00
C 145.70 107.24 147.40 105.39 148.00 104.00
C 148.37 102.83 148.71 101.23 149.00 100.00
C 151.12 90.96 151.60 81.28 150.00 72.00
C 148.61 63.92 145.74 57.32 142.00 50.00
C 140.98 48.53 139.26 46.45 138.00 45.00
C 134.54 41.03 129.09 35.83 125.00 33.00
C 119.57 30.22 112.53 27.63 108.00 24.00
C 108.00 24.00 107.50 23.97 107.00 24.00
C 102.92 24.27 99.17 23.08 95.00 23.00
C 92.00 22.94 89.00 23.00 86.00 23.00
C 78.25 23.00 68.55 25.13 62.00 29.00 Z"/>
</g>
<g fill="#BAB8B9" fill-opacity="0.26" stroke="None">
<path d="
M 125.00 33.00 
C 125.71 33.36 126.20 33.85 127.00 34.00
C 125.05 29.30 113.26 24.20 108.00 24.00
C 112.53 27.63 119.57 30.22 125.00 33.00 Z"/>
</g>
<g fill="#919292" fill-opacity="0.44" stroke="None">
<path d="
M 59.00 30.00 
C 58.52 30.46 58.40 31.59 58.00 32.00
C 59.53 31.16 60.71 29.76 62.00 29.00
C 61.26 29.42 59.89 29.59 59.00 30.00 Z"/>
</g>
<g fill="#CCCCCC" fill-opacity="0.18" stroke="None">
<path d="
M 54.00 34.00 
C 55.13 33.13 56.73 32.70 58.00 32.00
C 58.40 31.59 58.52 30.46 59.00 30.00
C 56.80 31.03 55.37 31.90 54.00 34.00 Z"/>
</g>
<g fill="#636262" fill-opacity="0.64" stroke="None">
<path d="
M 138.00 45.00 
C 134.66 41.93 130.57 37.68 128.00 34.00
C 128.00 34.00 127.48 34.09 127.00 34.00
C 126.20 33.85 125.71 33.36 125.00 33.00
C 129.09 35.83 134.54 41.03 138.00 45.00 Z"/>
</g>
<g fill="#DAD6D7" fill-opacity="0.13" stroke="None">
<path d="
M 39.00 49.00 
C 39.70 48.23 41.38 47.73 42.00 47.00
C 42.35 46.32 42.59 45.67 43.00 45.00
C 45.55 40.81 50.23 37.97 53.00 34.00
C 48.15 36.37 40.84 43.89 39.00 49.00 Z"/>
</g>
<g fill="#7A797A" fill-opacity="0.56" stroke="None">
<path d="
M 43.00 45.00 
C 46.09 41.69 52.15 38.42 54.00 34.00
C 54.00 34.00 53.40 33.80 53.00 34.00
C 50.23 37.97 45.55 40.81 43.00 45.00 Z"/>
</g>
<g fill="#D3D1D2" fill-opacity="0.15" stroke="None">
<path d="
M 138.00 45.00 
C 138.79 45.72 140.34 46.27 141.00 47.00
C 138.87 42.65 132.32 35.67 128.00 34.00
C 130.57 37.68 134.66 41.93 138.00 45.00 Z"/>
</g>
<g fill="#979696" fill-opacity="0.40" stroke="None">
<path d="
M 142.00 50.00 
C 141.64 49.29 141.15 48.80 141.00 48.00
C 141.00 48.00 141.20 47.40 141.00 47.00
C 140.34 46.27 138.79 45.72 138.00 45.00
C 139.26 46.45 140.98 48.53 142.00 50.00 Z"/>
</g>
<g fill="#7A7A7A" fill-opacity="0.56" stroke="None">
<path d="
M 39.00 49.00 
C 39.00 49.00 39.09 49.52 39.00 50.00
C 38.89 50.60 38.24 51.42 38.00 52.00
C 39.01 50.34 40.96 49.03 42.00 47.00
C 41.38 47.73 39.70 48.23 39.00 49.00 Z"/>
</g>
<g fill="#C5C4C5" fill-opacity="0.21" stroke="None">
<path d="
M 67.00 55.00 
C 64.52 57.17 60.61 61.42 59.00 64.00
C 52.15 78.01 52.55 94.77 63.00 107.00
C 67.42 111.42 72.44 115.81 77.00 120.00
C 73.68 127.04 65.44 131.49 61.00 138.00
C 54.13 134.18 48.52 126.76 43.00 121.00
C 37.27 112.97 31.78 102.89 31.00 93.00
C 29.80 86.76 29.89 79.17 31.00 73.00
C 31.25 69.38 32.87 66.51 33.00 63.00
C 33.02 62.50 33.00 62.00 33.00 62.00
C 20.34 89.96 36.62 125.62 62.00 139.00
C 65.30 131.96 81.69 125.32 74.90 117.10 C 68.11 108.88 60.25 105.22 56.99 94.01 C 53.73 82.79 56.12 70.67 63.25 61.25 C 70.37 51.82 79.08 50.13 91.00 48.00 C 102.92 45.87 109.97 58.09 119.00 61.00
C 117.90 58.74 114.77 55.65 113.00 54.00
C 112.42 53.65 111.63 53.32 111.00 53.00
C 109.28 52.12 107.48 50.75 106.00 50.00
C 92.67 44.58 78.43 46.50 67.00 55.00 Z"/>
</g>
<g fill="#C9C8C8" fill-opacity="0.18" stroke="None">
<path d="
M 142.00 50.00 
C 145.74 57.32 148.61 63.92 150.00 72.00
C 150.24 72.65 151.84 74.39 152.00 75.00
C 151.28 65.98 147.60 54.32 141.00 48.00
C 141.15 48.80 141.64 49.29 142.00 50.00 Z"/>
</g>
<g fill="#D0D0D0" fill-opacity="0.16" stroke="None">
<path d="
M 35.00 56.00 
C 35.43 55.51 36.61 55.40 37.00 55.00
C 37.44 54.01 37.62 52.92 38.00 52.00
C 38.24 51.42 38.89 50.60 39.00 50.00
C 37.03 51.88 36.07 53.52 35.00 56.00 Z"/>
</g>
<g fill="#666466" fill-opacity="0.64" stroke="None">
<path d="
M 111.00 53.00 
C 109.20 51.39 108.29 50.93 106.00 50.00
C 107.48 50.75 109.28 52.12 111.00 53.00 Z"/>
</g>
<g fill="#686667" fill-opacity="0.62" stroke="None">
<path d="
M 119.00 61.00 
C 119.00 61.00 118.83 61.57 119.00 62.00
C 119.68 62.75 121.43 63.27 122.00 64.00
C 120.26 60.28 116.65 56.22 113.00 54.00
C 114.77 55.65 117.90 58.74 119.00 61.00 Z"/>
</g>
<g fill="#9F9F9F" fill-opacity="0.38" stroke="None">
<path d="
M 35.00 56.00 
C 34.15 57.96 33.34 59.92 33.00 62.00
C 33.00 62.00 33.02 62.50 33.00 63.00
C 34.50 60.85 35.80 57.66 37.00 55.00
C 36.61 55.40 35.43 55.51 35.00 56.00 Z"/>
</g>
<g fill="#565656" fill-opacity="0.72" stroke="None">
<path d="
M 59.00 64.00 
C 60.61 61.42 64.52 57.17 67.00 55.00
C 63.84 57.35 60.75 60.43 59.00 64.00 Z"/>
</g>
<g fill="#C5C2C4" fill-opacity="0.22" stroke="None">
<path d="
M 119.00 104.00 
C 119.69 103.24 121.40 102.73 122.00 102.00
C 128.40 89.21 127.94 76.70 122.00 64.00
C 121.43 63.27 119.68 62.75 119.00 62.00
C 121.83 69.21 125.97 74.79 125.98 82.98 C 125.98 91.16 121.83 96.80 119.00 104.00 Z"/>
</g>
<g fill="#C7C6C6" fill-opacity="0.21" stroke="None">
<path d="
M 106.00 94.00 
C 105.07 95.29 102.37 97.22 101.00 98.00
C 94.82 101.52 87.20 101.80 81.00 98.00
C 78.75 96.62 76.28 94.26 75.00 92.00
C 72.95 88.40 72.13 82.29 73.00 78.00
C 73.77 74.21 77.76 69.98 81.00 68.00
C 93.95 60.07 116.11 74.05 107.00 90.00
C 106.78 90.38 107.00 91.00 107.00 91.00
C 115.47 86.98 107.45 69.45 99.69 66.31 C 91.94 63.16 79.12 64.17 74.31 73.31 C 69.49 82.44 71.77 93.37 79.92 99.08 C 88.07 104.78 101.19 102.76 106.00 94.00 Z"/>
</g>
<g fill="#1D1C1C" fill-opacity="0.98" stroke="None">
<path d="
M 81.00 68.00 
C 78.81 69.58 73.61 75.83 73.00 78.00
C 72.13 82.29 72.95 88.40 75.00 92.00
C 75.93 93.38 79.69 97.06 81.00 98.00
C 87.20 101.80 94.82 101.52 101.00 98.00
C 103.77 96.14 104.76 91.96 107.00 90.00
C 116.11 74.05 93.95 60.07 81.00 68.00 Z"/>
</g>
<g fill="#5F5D5E" fill-opacity="0.69" stroke="None">
<path d="
M 73.00 78.00 
C 73.61 75.83 78.81 69.58 81.00 68.00
C 77.76 69.98 73.77 74.21 73.00 78.00 Z"/>
</g>
<g fill="#A2A1A1" fill-opacity="0.35" stroke="None">
<path d="
M 149.00 100.00 
C 149.35 99.77 150.00 100.00 150.00 100.00
C 152.35 92.27 152.67 83.44 152.00 75.00
C 151.84 74.39 150.24 72.65 150.00 72.00
C 151.60 81.28 151.12 90.96 149.00 100.00 Z"/>
</g>
<g fill="#5D5B5C" fill-opacity="0.69" stroke="None">
<path d="
M 31.00 93.00 
C 30.49 86.58 30.56 79.43 31.00 73.00
C 29.89 79.17 29.80 86.76 31.00 93.00 Z"/>
</g>
<g fill="#929191" fill-opacity="0.45" stroke="None">
<path d="
M 101.00 98.00 
C 102.37 97.22 105.07 95.29 106.00 94.00
C 106.54 93.02 106.99 92.14 107.00 91.00
C 107.00 91.00 106.78 90.38 107.00 90.00
C 104.76 91.96 103.77 96.14 101.00 98.00 Z"/>
</g>
<g fill="#545454" fill-opacity="0.71" stroke="None">
<path d="
M 81.00 98.00 
C 79.69 97.06 75.93 93.38 75.00 92.00
C 76.28 94.26 78.75 96.62 81.00 98.00 Z"/>
</g>
<g fill="#C8C7C8" fill-opacity="0.19" stroke="None">
<path d="
M 148.00 104.00 
C 147.39 105.91 145.76 107.48 145.00 109.00
C 144.31 110.72 143.93 112.30 143.00 114.00
C 141.71 116.34 140.23 118.55 138.00 120.00
C 138.00 120.00 138.20 120.60 138.00 121.00
C 133.79 129.60 121.54 137.95 114.75 144.75 C 107.96 151.56 99.54 163.82 91.00 168.00
C 91.00 168.00 90.40 168.20 90.00 168.00
C 85.39 165.74 76.23 156.55 74.00 152.00
C 74.00 152.00 73.80 151.40 74.00 151.00
C 78.52 141.75 90.64 136.86 96.25 128.25 C 101.86 119.64 114.48 114.24 119.00 105.00
C 103.47 119.56 86.67 136.28 72.00 152.00
C 79.09 157.37 83.90 166.91 92.00 170.00
C 101.57 158.46 113.89 148.37 124.00 137.00
C 126.84 133.81 129.81 130.75 133.00 128.00
C 140.99 119.93 146.68 110.93 150.00 100.00
C 150.00 100.00 149.35 99.77 149.00 100.00
C 148.71 101.23 148.37 102.83 148.00 104.00 Z"/>
</g>
<g fill="#716F70" fill-opacity="0.58" stroke="None">
<path d="
M 119.00 104.00 
C 119.00 104.00 119.20 104.60 119.00 105.00
C 114.48 114.24 101.86 119.64 96.25 128.25 C 90.64 136.86 78.52 141.75 74.00 151.00
C 82.82 144.83 91.22 134.49 98.75 126.75 C 106.28 119.01 117.24 111.52 122.00 102.00
C 121.40 102.73 119.69 103.24 119.00 104.00 Z"/>
</g>
<g fill="#5B595A" fill-opacity="0.66" stroke="None">
<path d="
M 145.00 109.00 
C 145.76 107.48 147.39 105.91 148.00 104.00
C 147.40 105.39 145.70 107.24 145.00 109.00 Z"/>
</g>
<g fill="#615F60" fill-opacity="0.65" stroke="None">
<path d="
M 43.00 121.00 
C 48.52 126.76 54.13 134.18 61.00 138.00
C 65.44 131.49 73.68 127.04 77.00 120.00
C 72.44 115.81 67.42 111.42 63.00 107.00
C 66.46 112.50 73.65 115.98 76.00 122.00
C 69.82 126.11 65.70 134.00 59.00 137.00
C 54.92 130.78 47.72 126.63 43.00 121.00 Z"/>
</g>
<g fill="#514F50" fill-opacity="0.71" stroke="None">
<path d="
M 138.00 120.00 
C 140.23 118.55 141.71 116.34 143.00 114.00
C 141.62 115.99 139.42 117.72 138.00 120.00 Z"/>
</g>
<g fill="#4C4B4C" fill-opacity="0.75" stroke="None">
<path d="
M 91.00 168.00 
C 99.54 163.82 107.96 151.56 114.75 144.75 C 121.54 137.95 133.79 129.60 138.00 121.00
C 129.32 127.07 121.80 136.69 114.25 144.25 C 106.69 151.81 97.11 159.26 91.00 168.00 Z"/>
</g>
<g fill="#F1EFEF" fill-opacity="0.04" stroke="None">
<path d="
M 124.00 137.00 
C 126.96 134.15 130.06 130.96 133.00 128.00
C 129.81 130.75 126.84 133.81 124.00 137.00 Z"/>
</g>
<g fill="#605F60" fill-opacity="0.66" stroke="None">
<path d="
M 90.00 168.00 
C 86.14 162.49 79.57 155.89 74.00 152.00
C 76.23 156.55 85.39 165.74 90.00 168.00 Z"/>
</g>
</svg>